G75*
%MOIN*%
%OFA0B0*%
%FSLAX24Y24*%
%IPPOS*%
%LPD*%
%AMOC8*
5,1,8,0,0,1.08239X$1,22.5*
%
%ADD10R,0.0840X0.0200*%
%ADD11R,0.0847X0.0769*%
%ADD12R,0.0454X0.0493*%
%ADD13R,0.0611X0.0690*%
%ADD14R,0.0690X0.0611*%
%ADD15R,0.0847X0.0532*%
%ADD16R,0.0454X0.0611*%
%ADD17R,0.0493X0.0454*%
%ADD18C,0.0397*%
D10*
X001857Y008690D03*
X001857Y008950D03*
X001857Y009190D03*
X001857Y009450D03*
X001857Y009690D03*
X001857Y009950D03*
X001857Y010190D03*
X001857Y010450D03*
X003797Y010450D03*
X003797Y010190D03*
X003797Y009950D03*
X003797Y009690D03*
X003797Y009450D03*
X003797Y009190D03*
X003797Y008950D03*
X003797Y008690D03*
D11*
X001000Y003137D03*
X001000Y005137D03*
X002654Y005137D03*
X002654Y003137D03*
D12*
X003654Y005046D03*
X003654Y005715D03*
X004598Y005711D03*
X004598Y005042D03*
X000850Y009219D03*
X000850Y009889D03*
D13*
X001122Y007727D03*
X001098Y006294D03*
X002201Y006294D03*
X002224Y007727D03*
X002236Y001156D03*
X003339Y001156D03*
D14*
X003520Y006664D03*
X003520Y007767D03*
D15*
X003996Y011184D03*
X003996Y012444D03*
D16*
X001685Y011534D03*
X001311Y012400D03*
X000937Y011534D03*
D17*
X002409Y012424D03*
X003079Y012424D03*
D18*
X002587Y010967D03*
X004791Y011873D03*
X002508Y004156D03*
M02*
