G75*
%MOIN*%
%OFA0B0*%
%FSLAX24Y24*%
%IPPOS*%
%LPD*%
%AMOC8*
5,1,8,0,0,1.08239X$1,22.5*
%
%ADD10C,0.0160*%
%ADD11C,0.0337*%
D10*
X000454Y000410D02*
X000454Y012942D01*
X005113Y012942D01*
X005113Y000410D01*
X000454Y000410D01*
X000454Y000497D02*
X005113Y000497D01*
X005113Y000656D02*
X000454Y000656D01*
X000454Y000814D02*
X005113Y000814D01*
X005113Y000973D02*
X000454Y000973D01*
X000454Y001131D02*
X005113Y001131D01*
X005113Y001290D02*
X000454Y001290D01*
X000454Y001448D02*
X005113Y001448D01*
X005113Y001607D02*
X000454Y001607D01*
X000454Y001765D02*
X005113Y001765D01*
X005113Y001924D02*
X000454Y001924D01*
X000454Y002082D02*
X005113Y002082D01*
X005113Y002241D02*
X000454Y002241D01*
X000454Y002399D02*
X005113Y002399D01*
X005113Y002558D02*
X000454Y002558D01*
X000454Y002716D02*
X005113Y002716D01*
X005113Y002875D02*
X000454Y002875D01*
X000454Y003033D02*
X005113Y003033D01*
X005113Y003192D02*
X000454Y003192D01*
X000454Y003350D02*
X005113Y003350D01*
X005113Y003509D02*
X000454Y003509D01*
X000454Y003667D02*
X005113Y003667D01*
X005113Y003826D02*
X000454Y003826D01*
X000454Y003984D02*
X005113Y003984D01*
X005113Y004143D02*
X000454Y004143D01*
X000454Y004301D02*
X005113Y004301D01*
X005113Y004460D02*
X000454Y004460D01*
X000454Y004618D02*
X005113Y004618D01*
X005113Y004777D02*
X000454Y004777D01*
X000454Y004935D02*
X005113Y004935D01*
X005113Y005094D02*
X000454Y005094D01*
X000454Y005252D02*
X005113Y005252D01*
X005113Y005411D02*
X000454Y005411D01*
X000454Y005569D02*
X005113Y005569D01*
X005113Y005728D02*
X000454Y005728D01*
X000454Y005886D02*
X005113Y005886D01*
X005113Y006045D02*
X000454Y006045D01*
X000454Y006203D02*
X005113Y006203D01*
X005113Y006362D02*
X000454Y006362D01*
X000454Y006520D02*
X005113Y006520D01*
X005113Y006679D02*
X000454Y006679D01*
X000454Y006837D02*
X005113Y006837D01*
X005113Y006996D02*
X000454Y006996D01*
X000454Y007154D02*
X005113Y007154D01*
X005113Y007313D02*
X000454Y007313D01*
X000454Y007471D02*
X005113Y007471D01*
X005113Y007630D02*
X000454Y007630D01*
X000454Y007788D02*
X005113Y007788D01*
X005113Y007947D02*
X000454Y007947D01*
X000454Y008105D02*
X005113Y008105D01*
X005113Y008264D02*
X000454Y008264D01*
X000454Y008422D02*
X005113Y008422D01*
X005113Y008581D02*
X000454Y008581D01*
X000454Y008739D02*
X005113Y008739D01*
X005113Y008898D02*
X000454Y008898D01*
X000454Y009056D02*
X005113Y009056D01*
X005113Y009215D02*
X000454Y009215D01*
X000454Y009373D02*
X005113Y009373D01*
X005113Y009532D02*
X000454Y009532D01*
X000454Y009690D02*
X005113Y009690D01*
X005113Y009849D02*
X000454Y009849D01*
X000454Y010007D02*
X005113Y010007D01*
X005113Y010166D02*
X000454Y010166D01*
X000454Y010324D02*
X005113Y010324D01*
X005113Y010483D02*
X000454Y010483D01*
X000454Y010641D02*
X005113Y010641D01*
X005113Y010800D02*
X000454Y010800D01*
X000454Y010958D02*
X005113Y010958D01*
X005113Y011117D02*
X000454Y011117D01*
X000454Y011275D02*
X005113Y011275D01*
X005113Y011434D02*
X000454Y011434D01*
X000454Y011592D02*
X005113Y011592D01*
X005113Y011751D02*
X000454Y011751D01*
X000454Y011909D02*
X005113Y011909D01*
X005113Y012068D02*
X000454Y012068D01*
X000454Y012226D02*
X005113Y012226D01*
X005113Y012385D02*
X000454Y012385D01*
X000454Y012543D02*
X005113Y012543D01*
X005113Y012702D02*
X000454Y012702D01*
X000454Y012860D02*
X005113Y012860D01*
D11*
X004791Y011873D03*
X002587Y010967D03*
X002508Y004156D03*
M02*
